# xmcd CD database file
#
# Track frame offsets:
#	180
#	23704
#	37066
#	56627
#	73875
#	91838
#	118787
#	135405
#	154159
#	171955
#	184386
#	200789
#
# Disc length: 3031 seconds
#
# Revision: 0
# Processed by: cddbd v1.5.2PL0 Copyright (c) Steve Scherf et al.
# Submitted via: NeoAudio 9.9.9
#
DISCID=b00bd50c
DTITLE=Dave Rummans - Be
DYEAR=1995
DGENRE=Blues
TTITLE0=Be
TTITLE1=Skip
TTITLE2=Twisted Wire
TTITLE3=Wonder
TTITLE4=That's Cheating
TTITLE5=Did You Say Something?
TTITLE6=Dead
TTITLE7=Wait Up
TTITLE8=Guitar God
TTITLE9=View
TTITLE10=Nicotine
TTITLE11=Too Much to Think
EXTD=YEAR: 1995
EXTT0=
EXTT1=
EXTT2=
EXTT3=
EXTT4=
EXTT5=
EXTT6=
EXTT7=
EXTT8=
EXTT9=
EXTT10=
EXTT11=
PLAYORDER=
